<?xml version="1.0" encoding="UTF-8"?>
<svg version="1.1" xmlns="http://www.w3.org/2000/svg" width="512" height="512">
<path d="M0 0 C1.28053253 -0.00571014 2.56106506 -0.01142029 3.88040161 -0.01730347 C5.29806509 -0.01854888 6.71572867 -0.01967396 8.13339233 -0.02069092 C9.62872438 -0.02532159 11.12405526 -0.03034659 12.61938477 -0.03573608 C16.68687919 -0.04885888 20.75435708 -0.05530761 24.82186937 -0.05974674 C27.37427393 -0.06268441 29.92667407 -0.06679104 32.47907639 -0.07125092 C40.49563088 -0.08494035 48.51217515 -0.09459364 56.52874053 -0.09845281 C65.72124803 -0.10290385 74.91360464 -0.12030643 84.10606635 -0.1494534 C91.24365229 -0.17128079 98.38119653 -0.18116854 105.5188154 -0.18249393 C109.7640332 -0.18352929 114.00910951 -0.18915664 118.25429153 -0.20731354 C142.04062067 -0.30326281 165.46971976 0.5184169 188.83407593 5.51544189 C189.86025024 5.72966797 190.88642456 5.94389404 191.94369507 6.16461182 C223.13896113 12.84250499 251.45208207 26.13363478 274.77157593 48.14044189 C275.50891968 48.81333252 276.24626343 49.48622314 277.00595093 50.17950439 C302.47929548 74.29788381 315.65441659 110.94557823 316.9781189 145.50982666 C317.09778998 150.05362835 317.10560757 154.59537833 317.08407593 159.14044189 C317.08134171 160.34650589 317.08134171 160.34650589 317.07855225 161.57693481 C316.89959339 208.71073483 303.25023201 252.72915178 270.48251343 287.46856689 C266.17234951 291.71662471 261.56787843 295.45924614 256.77157593 299.14044189 C255.8718103 299.86747314 254.97204468 300.59450439 254.04501343 301.34356689 C218.41667249 329.41438097 169.55687827 340.42781588 125.00985718 340.23809814 C123.1021479 340.23597572 123.1021479 340.23597572 121.15589905 340.23381042 C117.81379204 340.22919694 114.47175656 340.22025042 111.12966919 340.20910645 C107.70367035 340.19878194 104.27766405 340.19428942 100.85165405 340.18927002 C94.15827534 340.17830112 87.46492975 340.16160866 80.77157593 340.14044189 C80.7752631 340.91128113 80.77895027 341.68212036 80.78274918 342.47631836 C80.87115277 361.24744155 80.93731111 380.0185231 80.97882462 398.78981018 C80.99943474 407.86753829 81.02752566 416.9451273 81.07333374 426.02276611 C81.11324901 433.93643094 81.13902001 441.84999501 81.14792991 449.76375771 C81.15313674 453.95263776 81.16534216 458.14122957 81.19449615 462.33001709 C81.22173955 466.27643908 81.23000305 470.22245537 81.22400665 474.16896248 C81.22510292 475.61370108 81.23300383 477.05845389 81.24839783 478.50311089 C81.341508 487.69555252 80.88583004 493.94152079 75.05282593 501.31231689 C61.42490213 513.3861792 41.26116321 512.49339241 24.12631226 512.45611572 C21.10730485 512.45296613 18.08929033 512.4764508 15.07040405 512.50177002 C-19.0526916 512.61512592 -19.0526916 512.61512592 -32.22842407 503.14044189 C-37.84840534 497.4230043 -39.37892764 492.58977279 -39.36264515 484.6704731 C-39.36499738 483.89931955 -39.36734961 483.12816599 -39.36977312 482.33364415 C-39.37647367 479.72830538 -39.37600458 477.12301636 -39.37559509 474.51766968 C-39.37889308 472.63931097 -39.38261851 470.76095298 -39.38673657 468.8825959 C-39.39677247 463.70395163 -39.40047594 458.52531895 -39.40312588 453.34666634 C-39.40702434 447.76768118 -39.41660314 442.18870524 -39.42533875 436.60972595 C-39.44511835 423.12618304 -39.45517224 409.64263937 -39.46406654 396.15908557 C-39.46844786 389.81100116 -39.47381515 383.46291758 -39.4790554 377.11483383 C-39.49607081 356.01369208 -39.51058934 334.91255069 -39.51780415 313.81140327 C-39.5182789 312.44643088 -39.51875479 311.08145848 -39.51923181 309.71648609 C-39.51946818 309.03958388 -39.51970456 308.36268167 -39.5199481 307.66526727 C-39.52114929 304.23576818 -39.52236474 300.8062691 -39.52359009 297.37677002 C-39.52395031 296.35587814 -39.52395031 296.35587814 -39.52431781 295.31436219 C-39.53220646 273.25992578 -39.55562776 251.20554322 -39.58814603 229.15113031 C-39.62246823 205.83063203 -39.64215649 182.51016969 -39.64544839 159.18964183 C-39.64761351 146.47898487 -39.65636238 133.76840701 -39.68190956 121.05777359 C-39.70361963 110.23109793 -39.7116655 99.40452058 -39.70194278 88.57782562 C-39.69739873 83.05524072 -39.69929059 77.53285866 -39.71870422 72.01030159 C-39.73634121 66.94933551 -39.7353336 61.88872015 -39.71980693 56.82775031 C-39.71743167 55.0019099 -39.72175012 53.17604518 -39.73363558 51.35024191 C-39.82601986 36.21455714 -38.13312585 22.80840383 -27.45108032 11.21075439 C-19.85993486 3.97665667 -10.42437012 0.0278622 0 0 Z M80.77157593 97.14044189 C80.75699341 98.05333984 80.74241089 98.96623779 80.72738647 99.90679932 C80.66616797 103.30842801 80.5919872 106.7092687 80.50912476 110.1104126 C80.47596334 111.57970612 80.44790415 113.04912433 80.42514038 114.51861572 C80.39143074 116.63658558 80.3391116 118.75342185 80.28329468 120.87091064 C80.2571106 122.14345703 80.23092651 123.41600342 80.20394897 124.72711182 C79.73515365 128.42797429 79.18188757 130.30164459 76.77157593 133.14044189 C74.79157593 133.80044189 72.81157593 134.46044189 70.77157593 135.14044189 C70.77157593 143.39044189 70.77157593 151.64044189 70.77157593 160.14044189 C74.23657593 161.62544189 74.23657593 161.62544189 77.77157593 163.14044189 C80.22458665 166.23336846 80.16411378 169.29357099 79.77157593 173.14044189 C78.64657593 175.89044189 78.64657593 175.89044189 76.77157593 178.14044189 C73.80157593 179.13044189 73.80157593 179.13044189 70.77157593 180.14044189 C70.77157593 188.39044189 70.77157593 196.64044189 70.77157593 205.14044189 C73.08157593 206.13044189 75.39157593 207.12044189 77.77157593 208.14044189 C80.42961039 211.41540514 80.08509132 215.22340103 80.18563843 219.31231689 C80.20500458 219.9947345 80.22437073 220.6771521 80.24432373 221.38024902 C80.3038869 223.55018798 80.35041039 225.72018067 80.39657593 227.89044189 C80.43477724 229.36572486 80.47383023 230.84098604 80.51376343 232.31622314 C80.60956828 235.92409607 80.69368508 239.53213273 80.77157593 243.14044189 C86.68992474 243.21582749 92.60798093 243.26961334 98.52670288 243.30523682 C100.5309843 243.32012128 102.53523439 243.34043543 104.53939819 243.36676025 C129.36987472 243.68422185 153.54856624 241.83788349 172.52157593 223.89044189 C189.63028476 205.80409256 192.61160916 182.78241326 192.11532593 158.92559814 C191.43267435 141.29612118 185.7127908 125.54685985 172.99813843 112.87481689 C167.45637311 107.85467067 160.62645532 104.93470374 153.77157593 102.14044189 C152.93239624 101.78337158 152.09321655 101.42630127 151.22860718 101.05841064 C135.7935361 95.51271254 117.14537034 96.87003419 101.02157593 97.01544189 C99.0411118 97.0255115 97.06064261 97.03463018 95.08016968 97.04278564 C90.31050902 97.06443859 85.54110166 97.09873902 80.77157593 97.14044189 Z " fill="#87DE8D" transform="translate(117.22842407226563,-0.14044189453125)"/>
<path d="M0 0 C1.28053253 -0.00571014 2.56106506 -0.01142029 3.88040161 -0.01730347 C5.29806509 -0.01854888 6.71572867 -0.01967396 8.13339233 -0.02069092 C9.62872438 -0.02532159 11.12405526 -0.03034659 12.61938477 -0.03573608 C16.68687919 -0.04885888 20.75435708 -0.05530761 24.82186937 -0.05974674 C27.37427393 -0.06268441 29.92667407 -0.06679104 32.47907639 -0.07125092 C40.49563088 -0.08494035 48.51217515 -0.09459364 56.52874053 -0.09845281 C65.72124803 -0.10290385 74.91360464 -0.12030643 84.10606635 -0.1494534 C91.24365229 -0.17128079 98.38119653 -0.18116854 105.5188154 -0.18249393 C109.7640332 -0.18352929 114.00910951 -0.18915664 118.25429153 -0.20731354 C142.04062067 -0.30326281 165.46971976 0.5184169 188.83407593 5.51544189 C189.86025024 5.72966797 190.88642456 5.94389404 191.94369507 6.16461182 C223.13896113 12.84250499 251.45208207 26.13363478 274.77157593 48.14044189 C275.50891968 48.81333252 276.24626343 49.48622314 277.00595093 50.17950439 C302.47929548 74.29788381 315.65441659 110.94557823 316.9781189 145.50982666 C317.09778998 150.05362835 317.10560757 154.59537833 317.08407593 159.14044189 C317.08134171 160.34650589 317.08134171 160.34650589 317.07855225 161.57693481 C316.89959339 208.71073483 303.25023201 252.72915178 270.48251343 287.46856689 C266.17234951 291.71662471 261.56787843 295.45924614 256.77157593 299.14044189 C255.8718103 299.86747314 254.97204468 300.59450439 254.04501343 301.34356689 C218.41667249 329.41438097 169.55687827 340.42781588 125.00985718 340.23809814 C123.1021479 340.23597572 123.1021479 340.23597572 121.15589905 340.23381042 C117.81379204 340.22919694 114.47175656 340.22025042 111.12966919 340.20910645 C107.70367035 340.19878194 104.27766405 340.19428942 100.85165405 340.18927002 C94.15827534 340.17830112 87.46492975 340.16160866 80.77157593 340.14044189 C80.7752631 340.91128113 80.77895027 341.68212036 80.78274918 342.47631836 C80.87115277 361.24744155 80.93731111 380.0185231 80.97882462 398.78981018 C80.99943474 407.86753829 81.02752566 416.9451273 81.07333374 426.02276611 C81.11324901 433.93643094 81.13902001 441.84999501 81.14792991 449.76375771 C81.15313674 453.95263776 81.16534216 458.14122957 81.19449615 462.33001709 C81.22173955 466.27643908 81.23000305 470.22245537 81.22400665 474.16896248 C81.22510292 475.61370108 81.23300383 477.05845389 81.24839783 478.50311089 C81.341508 487.69555252 80.88583004 493.94152079 75.05282593 501.31231689 C61.42490213 513.3861792 41.26116321 512.49339241 24.12631226 512.45611572 C21.10730485 512.45296613 18.08929033 512.4764508 15.07040405 512.50177002 C-19.0526916 512.61512592 -19.0526916 512.61512592 -32.22842407 503.14044189 C-37.84840534 497.4230043 -39.37892764 492.58977279 -39.36264515 484.6704731 C-39.36499738 483.89931955 -39.36734961 483.12816599 -39.36977312 482.33364415 C-39.37647367 479.72830538 -39.37600458 477.12301636 -39.37559509 474.51766968 C-39.37889308 472.63931097 -39.38261851 470.76095298 -39.38673657 468.8825959 C-39.39677247 463.70395163 -39.40047594 458.52531895 -39.40312588 453.34666634 C-39.40702434 447.76768118 -39.41660314 442.18870524 -39.42533875 436.60972595 C-39.44511835 423.12618304 -39.45517224 409.64263937 -39.46406654 396.15908557 C-39.46844786 389.81100116 -39.47381515 383.46291758 -39.4790554 377.11483383 C-39.49607081 356.01369208 -39.51058934 334.91255069 -39.51780415 313.81140327 C-39.5182789 312.44643088 -39.51875479 311.08145848 -39.51923181 309.71648609 C-39.51946818 309.03958388 -39.51970456 308.36268167 -39.5199481 307.66526727 C-39.52114929 304.23576818 -39.52236474 300.8062691 -39.52359009 297.37677002 C-39.52395031 296.35587814 -39.52395031 296.35587814 -39.52431781 295.31436219 C-39.53220646 273.25992578 -39.55562776 251.20554322 -39.58814603 229.15113031 C-39.62246823 205.83063203 -39.64215649 182.51016969 -39.64544839 159.18964183 C-39.64761351 146.47898487 -39.65636238 133.76840701 -39.68190956 121.05777359 C-39.70361963 110.23109793 -39.7116655 99.40452058 -39.70194278 88.57782562 C-39.69739873 83.05524072 -39.69929059 77.53285866 -39.71870422 72.01030159 C-39.73634121 66.94933551 -39.7353336 61.88872015 -39.71980693 56.82775031 C-39.71743167 55.0019099 -39.72175012 53.17604518 -39.73363558 51.35024191 C-39.82601986 36.21455714 -38.13312585 22.80840383 -27.45108032 11.21075439 C-19.85993486 3.97665667 -10.42437012 0.0278622 0 0 Z M-14.66592407 27.45294189 C-18.23694179 33.59509236 -19.67716358 39.07396139 -19.59756756 46.13702393 C-19.60102909 46.90433446 -19.60449062 47.671645 -19.60805705 48.46220738 C-19.61597583 51.02442268 -19.60255782 53.58606843 -19.58918762 56.14825439 C-19.59049637 58.00719554 -19.59312406 59.86613615 -19.59695512 61.72507381 C-19.60365842 66.82637673 -19.59166946 71.92749044 -19.57662094 77.02876925 C-19.56366266 82.5324291 -19.56804989 88.03607833 -19.57032776 93.53974915 C-19.57190062 103.07294237 -19.56249001 112.60607398 -19.54561424 122.13925171 C-19.52123063 135.9226086 -19.51341962 149.7059357 -19.50965027 163.48931181 C-19.50308479 185.85204215 -19.48314677 208.21474249 -19.45474243 230.57745361 C-19.42718254 252.30043365 -19.40593493 274.0234049 -19.39321899 295.74639893 C-19.39282442 296.41617782 -19.39242984 297.08595672 -19.3920233 297.77603194 C-19.38806769 304.50232148 -19.38424026 311.22861109 -19.38050672 317.95490076 C-19.34919169 374.35010422 -19.29626036 430.7452713 -19.22842407 487.14044189 C-7.62308626 492.20395976 3.61717073 492.46485565 16.08822632 492.40118408 C18.56951588 492.39050456 21.05007445 492.4011134 23.53134155 492.41387939 C40.38778627 492.71713161 40.38778627 492.71713161 56.47721863 488.59533691 C58.10792549 487.87516388 58.10792549 487.87516388 59.77157593 487.14044189 C59.77304249 486.32045369 59.77450905 485.50046549 59.77602005 484.65562916 C59.81306251 464.70874142 59.87204317 444.76202394 59.95547867 424.81527424 C59.99529769 415.16918468 60.02767562 405.52317705 60.04257202 395.87701416 C60.05557372 387.46996803 60.08250037 379.06310194 60.12618899 370.6561572 C60.14883726 366.20419821 60.1644846 361.75246155 60.16345978 357.30043983 C60.16271514 353.11015718 60.18058631 348.92036662 60.21274376 344.73021126 C60.22126343 343.19234206 60.22297866 341.65441779 60.21737862 340.11653519 C60.21074773 338.01575853 60.22863369 335.91655179 60.25259399 333.81593323 C60.25812475 332.05300415 60.25812475 332.05300415 60.26376724 330.25446033 C60.87613231 326.49927425 62.14056054 324.83774071 64.77157593 322.14044189 C67.52720121 320.76262925 69.75967048 321.00048625 72.84408569 320.98272705 C74.12465347 320.9724649 75.40522125 320.96220276 76.72459412 320.95162964 C77.41351305 320.94819172 78.10243198 320.9447538 78.81222725 320.9412117 C80.99106306 320.92935154 83.16970688 320.90986382 85.34846497 320.88809204 C91.54648012 320.82683821 97.74449047 320.77322063 103.94271851 320.73907471 C158.41182742 320.42215579 214.00796557 312.46871386 254.77157593 273.14044189 C255.5630603 272.41212158 256.35454468 271.68380127 257.17001343 270.93341064 C272.25768847 256.66629337 281.87727536 237.72876998 288.11483765 218.15631104 C288.56217758 216.78319363 289.0336455 215.41775749 289.52597046 214.06011963 C291.73659567 207.87495426 292.87741448 201.68073203 293.89657593 195.20294189 C294.06544312 194.18264893 294.2343103 193.16235596 294.40829468 192.11114502 C299.76275187 159.07793867 298.19500169 123.39253912 282.77157593 93.14044189 C282.46880737 92.53651611 282.16603882 91.93259033 281.85409546 91.31036377 C277.01590364 81.81326728 270.93722506 73.97094507 263.77157593 66.14044189 C263.09223999 65.39020752 262.41290405 64.63997314 261.71298218 63.86700439 C240.50335601 41.55500681 208.74528664 29.86395174 179.14657593 24.39044189 C178.09502319 24.19176514 177.04347046 23.99308838 175.96005249 23.78839111 C153.80939316 19.95196793 131.30582156 19.8045514 108.89211202 19.77299619 C106.5877937 19.76929768 104.28349551 19.76303234 101.9791851 19.7559948 C93.90810097 19.73173298 85.8370794 19.7184911 77.76596069 19.71490479 C70.28611579 19.71124533 62.8066749 19.68111976 55.32695395 19.6395002 C48.85074936 19.60474778 42.37467926 19.58935582 35.89838213 19.58865875 C32.05293777 19.58787031 28.20791229 19.57932537 24.36256599 19.55066109 C20.75958097 19.52438012 17.15736083 19.52232975 13.5543232 19.53831673 C11.6193571 19.54097487 9.684405 19.51903854 7.74957275 19.49612427 C-1.09317446 19.56976414 -8.11688248 21.23974859 -14.66592407 27.45294189 Z " fill="#000100" transform="translate(117.22842407226563,-0.14044189453125)"/>
<path d="M0 0 C1.39515812 0.01054256 2.79034167 0.01809903 4.18553162 0.02282715 C7.85566141 0.04382599 11.52386815 0.10761881 15.19329834 0.17980957 C18.15565066 0.23130067 21.1178611 0.25357896 24.08056736 0.27393341 C60.17226849 0.52315991 60.17226849 0.52315991 72.18359375 3.78125 C72.98192627 3.99531494 73.78025879 4.20937988 74.6027832 4.42993164 C85.84321735 7.6368695 97.11570854 12.86380922 105.87109375 20.71875 C106.59425781 21.35039063 107.31742187 21.98203125 108.0625 22.6328125 C124.11668652 37.57325681 132.05716971 59.68729082 132.97900391 81.24194336 C133.70138556 111.54967102 127.37825096 141.04814533 105.87109375 163.71875 C86.94041597 180.74809333 63.02247322 187.01165094 38.09765625 187.08984375 C36.60077842 187.09883173 35.10390139 187.10795389 33.60702515 187.11720276 C30.49238923 187.13357039 27.37785937 187.14137227 24.26318359 187.14428711 C20.27840061 187.14970733 16.2946138 187.18758667 12.31011391 187.23303127 C9.22854953 187.26277849 6.14722816 187.27000988 3.06553268 187.27101326 C1.5959242 187.27520797 0.12631449 187.28761235 -1.34315109 187.30853081 C-3.39407411 187.33544567 -5.44264189 187.33062724 -7.49365234 187.31811523 C-8.65738373 187.32318588 -9.82111511 187.32825653 -11.02011108 187.33348083 C-15.08125961 186.53043236 -16.55727023 184.89174012 -19.12890625 181.71875 C-20.03396243 179.00358147 -20.27306405 177.32584023 -20.32177734 174.52612305 C-20.33784027 173.68482346 -20.3539032 172.84352386 -20.37045288 171.97673035 C-20.41506899 168.13464315 -20.45596078 164.29272527 -20.47900391 160.45043945 C-20.49556249 158.42623395 -20.5228512 156.40208689 -20.56103516 154.37817383 C-20.61589567 151.45363154 -20.63769096 148.53045678 -20.65234375 145.60546875 C-20.67501312 144.70527512 -20.6976825 143.80508148 -20.72103882 142.87760925 C-20.70644332 138.52075068 -20.51955667 135.6243173 -17.72119141 132.16333008 C-14.17844499 128.8224448 -12.07776099 128.32366742 -7.16796875 128.359375 C-3.74883927 128.9619802 -2.19701573 131.08661067 -0.12890625 133.71875 C1.357891 136.69234449 0.9822198 139.38174179 0.96875 142.6953125 C0.96733505 143.38056 0.9659201 144.0658075 0.96446228 144.77182007 C0.9588605 146.96250761 0.94630781 149.1530933 0.93359375 151.34375 C0.92857897 152.82812352 0.92401603 154.31249865 0.91992188 155.796875 C0.90889052 159.43753315 0.89162474 163.07813164 0.87109375 166.71875 C6.7898476 166.64877192 12.70796694 166.56031115 18.6262207 166.45629883 C20.63037947 166.42349099 22.63462088 166.39532949 24.63891602 166.37231445 C49.01878492 166.08506105 73.38086457 164.55794783 92.12109375 146.96875 C108.91558888 129.0752286 111.70303945 105.97194597 111.21484375 82.50390625 C110.54325036 65.160007 105.06974051 49.983747 92.875 37.23046875 C87.18765956 32.47499423 80.68336756 29.53187068 73.87109375 26.71875 C73.030625 26.36039063 72.19015625 26.00203125 71.32421875 25.6328125 C55.95956308 20.12986845 37.20383447 21.35645939 21.12109375 21.09375 C19.14061068 21.05542017 17.1601416 21.01636079 15.1796875 20.9765625 C10.41027453 20.88226244 5.64078501 20.79766741 0.87109375 20.71875 C0.89204102 21.62641113 0.91298828 22.53407227 0.93457031 23.46923828 C1.00300308 26.85752642 1.0530167 30.2450735 1.09082031 33.63378906 C1.11085707 35.09647252 1.13809479 36.55907666 1.17285156 38.02148438 C1.221726 40.1317101 1.24414034 42.24087136 1.26171875 44.3515625 C1.28266602 45.61887207 1.30361328 46.88618164 1.32519531 48.19189453 C0.79011045 52.34772028 -0.51750374 54.48393736 -3.12890625 57.71875 C-6.33504472 59.32181924 -9.65030622 59.20615461 -13.12890625 58.71875 C-16.70957858 56.53921032 -18.53314174 54.54485831 -20.12890625 50.71875 C-20.40979004 48.65238953 -20.40979004 48.65238953 -20.45117188 46.4284668 C-20.47038696 45.59047043 -20.48960205 44.75247406 -20.50939941 43.88908386 C-20.51789917 42.99111588 -20.52639893 42.09314789 -20.53515625 41.16796875 C-20.5465564 40.23580032 -20.55795654 39.3036319 -20.56970215 38.34321594 C-20.58857559 36.37216717 -20.6016596 34.40105567 -20.609375 32.42993164 C-20.62877372 29.4267668 -20.69082496 26.42634975 -20.75390625 23.42382812 C-20.76696922 21.50522453 -20.77746903 19.58660142 -20.78515625 17.66796875 C-20.80984985 16.77607346 -20.83454346 15.88417816 -20.85998535 14.96525574 C-20.82284283 9.72108653 -20.1090541 5.78854619 -16.31192017 1.97615051 C-11.37938889 -0.86495247 -5.52154468 -0.14058986 0 0 Z " fill="#010101" transform="translate(197.12890625,76.28125)"/>
<path d="M0 0 C3.60906934 2.91797096 5.78377478 5.09721805 6.3125 9.75 C5.92220973 13.80901885 4.50412622 15.83301684 2 19 C-1.20173254 20.60086627 -4.52577059 20.49917089 -8 20 C-10.8100346 18.20636089 -12.50940468 16.98119065 -14 14 C-14.47847852 10.9171447 -14.5463489 8.07652779 -14 5 C-9.81316068 -0.12887817 -6.48223319 -1.0289259 0 0 Z " fill="#010201" transform="translate(192,160)"/>
</svg>
